<svg width="42" height="42" viewBox="0 0 42 42" fill="none" xmlns="http://www.w3.org/2000/svg">
<path d="M21 42C9.45 42 0 32.55 0 21C0 9.45 9.45 0 21 0C32.55 0 42 9.45 42 21C42 32.55 32.55 42 21 42ZM16.625 29.75C17.675 35.175 19.6 38.5 21 38.5C22.4 38.5 24.325 35.175 25.375 29.75H16.625ZM29.05 29.75C28.525 32.725 27.65 35.525 26.6 37.625C30.625 36.225 34.125 33.425 36.225 29.75H29.05ZM5.775 29.75C7.875 33.425 11.375 36.225 15.4 37.625C14.35 35.525 13.475 32.725 12.95 29.75H5.775ZM29.575 26.25H37.8C38.15 24.675 38.5 22.75 38.5 21C38.5 19.25 38.15 17.325 37.625 15.75H29.4C29.75 17.5 29.75 19.25 29.75 21C29.75 22.75 29.75 24.5 29.575 26.25ZM16.1 26.25H26.075C26.25 24.675 26.425 22.925 26.425 21C26.425 19.075 26.25 17.325 26.075 15.75H16.1C15.925 17.325 15.75 19.075 15.75 21C15.75 22.925 15.925 24.675 16.1 26.25ZM4.375 26.25H12.6C12.425 24.5 12.425 22.75 12.425 21C12.425 19.25 12.425 17.5 12.6 15.75H4.375C3.85 17.325 3.5 19.25 3.5 21C3.5 22.75 3.85 24.675 4.375 26.25ZM29.05 12.25H36.225C34.125 8.575 30.625 5.775 26.6 4.375C27.65 6.475 28.525 9.275 29.05 12.25ZM16.625 12.25H25.55C24.5 6.825 22.575 3.5 21.175 3.5C19.775 3.5 17.675 6.825 16.625 12.25ZM5.775 12.25H12.95C13.475 9.275 14.35 6.475 15.4 4.375C11.375 5.775 8.05 8.575 5.775 12.25Z" fill="white"/>
</svg>
